<svg id="Capa_1" enable-background="new 0 0 512 512" viewBox="0 0 512 512" xmlns="http://www.w3.org/2000/svg"><g><g><path d="m475.392 348.933.768-11.636c-.001-.001-.001-.003-.002-.004 10.704-12.681 17.167-29.057 17.167-46.951 0-21.775-9.566-41.304-24.71-54.653 2.733-7.28 4.237-15.161 4.237-23.396 0-20.761-9.502-39.299-24.39-51.514l-6.645-14.862 9.626-1.067c.131-1.784.2-3.585.2-5.402 0-40.231-32.614-72.846-72.846-72.846 0 0 0 0 0-.001l-8.497-5.528 6.786-9.444c-6.796-29.569-33.259-51.629-64.891-51.629-23.632 0-44.373 12.319-56.195 30.874-11.822-18.555-32.563-30.874-56.195-30.874-31.632 0-58.094 22.06-64.891 51.629l3.38 5.972-5.091 9v.001c-40.231 0-72.846 32.614-72.846 72.846 0 1.818.069 3.619.2 5.402l6.22 5.478-3.24 10.451c-14.889 12.214-24.39 30.753-24.39 51.514 0 8.235 1.504 16.116 4.237 23.396-15.144 13.349-24.71 32.878-24.71 54.653 0 17.893 6.463 34.27 17.167 46.951-.001.001-.001.003-.002.004l1.304 8.856-6.671 7.277c-.818 4.169-1.271 8.47-1.271 12.879 0 29.195 18.793 53.984 44.935 62.977-.002.205-.016.408-.016.614 0 27.587 22.364 49.951 49.951 49.951 2.928 0 5.793-.266 8.583-.75 13.02 19.81 35.429 32.898 60.906 32.898 26.502 0 49.693-14.156 62.439-35.315 12.747 21.16 35.938 35.316 62.44 35.316 25.477 0 47.886-13.088 60.906-32.898 2.79.483 5.655.75 8.583.75 27.587 0 49.951-22.364 49.951-49.951 0-.206-.013-.409-.016-.614 26.142-8.993 44.935-33.783 44.935-62.977 0-4.409-.453-8.709-1.271-12.879z" fill="#fe99a0"/><path d="m475.392 348.933.768-11.636c-.001-.001-.001-.003-.002-.004 10.704-12.681 17.167-29.057 17.167-46.951 0-21.775-9.566-41.304-24.71-54.653 2.733-7.28 4.237-15.161 4.237-23.396 0-20.761-9.502-39.299-24.39-51.514l-6.645-14.862 9.626-1.067c.131-1.784.2-3.585.2-5.402 0-40.231-32.614-72.846-72.846-72.846 0 0 0 0 0-.001l-8.497-5.528 6.786-9.444c-6.796-29.569-33.259-51.629-64.891-51.629-6.133 0-12.068.836-17.707 2.389 23.915 6.569 42.455 26.126 47.537 50.617 1.586 7.641 7.765 13.451 15.424 14.946 33.516 6.541 58.811 36.064 58.811 71.495 0 3.984-.322 7.892-.939 11.702-.964 5.95.863 11.973 4.911 16.439 10.711 11.818 17.238 27.498 17.238 44.705 0 4.804-.512 9.487-1.481 14.001-1.274 5.933.49 12.083 4.439 16.69 10.915 12.733 17.515 29.271 17.515 47.358 0 14.44-4.209 27.893-11.459 39.212-3.149 4.915-3.971 10.959-2.199 16.521 2.034 6.381 3.132 13.179 3.132 20.234 0 26.447-15.421 49.279-37.758 60.028-4.295 2.067-7.757 5.55-9.616 9.94-4.888 11.543-18.202 34.053-49.271 41.491-4.235 1.014-8.055 3.393-10.772 6.796-9.814 12.292-23.52 21.335-39.253 25.264 5.665 1.414 11.589 2.173 17.691 2.173 25.477 0 47.886-13.088 60.906-32.898 2.79.483 5.655.75 8.583.75 27.587 0 49.951-22.364 49.951-49.951 0-.206-.013-.409-.016-.614 26.142-8.993 44.935-33.783 44.935-62.977 0-4.409-.453-8.709-1.271-12.879z" fill="#fd8087"/></g><g><path d="m337.977 420.638c-4.142 0-7.5-3.358-7.5-7.5 0-31.679 25.772-57.451 57.451-57.451 4.142 0 7.5 3.358 7.5 7.5s-3.358 7.5-7.5 7.5c-23.408 0-42.451 19.043-42.451 42.451 0 4.142-3.358 7.5-7.5 7.5z" fill="#fe646f"/></g><g fill="#fe646f"><path d="m413.911 149.625c12.443 0 24.593 3.966 34.619 11.214-.023-.019-.045-.04-.069-.06 1.558-5.096 2.575-10.427 2.981-15.929-11.313-6.639-24.29-10.225-37.531-10.225-23.687 0-46.134 11.466-60.046 30.671-2.43 3.354-1.681 8.044 1.674 10.474 3.354 2.431 8.044 1.68 10.474-1.674 11.099-15.324 29.005-24.471 47.898-24.471z"/><path d="m417.395 272.095c-11.069 0-21.857-3.872-30.377-10.903-9.262-7.643-15.195-18.324-16.877-30.006 16.669-2.415 31.91-11.5 41.926-25.328 2.43-3.354 1.681-8.044-1.674-10.474-3.354-2.431-8.043-1.681-10.474 1.674-8.97 12.383-23.441 19.776-38.708 19.776-11.069 0-21.857-3.872-30.377-10.903-11.048-9.117-17.384-22.551-17.384-36.857 0-4.142-3.358-7.5-7.5-7.5s-7.5 3.358-7.5 7.5c0 18.799 8.323 36.45 22.836 48.427 9.61 7.931 21.415 12.793 33.76 14.017 1.553 13.6 7.495 26.253 16.958 36.15-7.953 2.996-15.086 8.029-20.654 14.776-7.266 8.805-11.268 19.95-11.268 31.382 0 4.142 3.358 7.5 7.5 7.5s7.5-3.358 7.5-7.5c0-7.956 2.783-15.71 7.837-21.834 6.164-7.469 15.072-11.94 24.665-12.446 9.104 4.908 19.359 7.549 29.809 7.549 4.142 0 7.5-3.358 7.5-7.5s-3.356-7.5-7.498-7.5z"/><path d="m378.797 66.601c0-.004 0-.008 0-.013 0-.001-.001-.003 0-.003-.001-5.142-.604-10.14-1.708-14.947 0-.004-.001-.006-.002-.009-28.756.601-55.03 16.514-68.864 41.85-1.985 3.636-.647 8.192 2.988 10.177 3.636 1.986 8.192.647 10.177-2.988 11.473-21.014 33.462-34.068 57.385-34.068.008 0 .016.001.024.001z"/><path d="m476.16 337.297c-11.996 14.265-29.961 23.353-50.014 23.353-4.142 0-7.5 3.358-7.5 7.5s3.358 7.5 7.5 7.5c21.455 0 40.956-8.469 55.381-22.219-1.112-5.666-2.918-11.082-5.367-16.134z"/></g><g><path d="m174.023 420.638c4.142 0 7.5-3.358 7.5-7.5 0-31.679-25.772-57.451-57.451-57.451-4.142 0-7.5 3.358-7.5 7.5s3.358 7.5 7.5 7.5c23.408 0 42.451 19.043 42.451 42.451 0 4.142 3.358 7.5 7.5 7.5z" fill="#fe646f"/></g><g fill="#fe646f"><path d="m98.089 149.625c-12.443 0-24.593 3.966-34.619 11.214.023-.019.045-.04.069-.06-1.558-5.096-2.575-10.427-2.981-15.929 11.313-6.639 24.29-10.225 37.531-10.225 23.687 0 46.134 11.466 60.046 30.671 2.43 3.354 1.681 8.044-1.674 10.474-3.354 2.431-8.044 1.68-10.474-1.674-11.099-15.324-29.005-24.471-47.898-24.471z"/><path d="m94.605 272.095c11.069 0 21.857-3.872 30.377-10.903 9.262-7.643 15.195-18.324 16.877-30.006-16.669-2.415-31.91-11.5-41.926-25.328-2.43-3.354-1.681-8.044 1.674-10.474 3.354-2.431 8.043-1.681 10.474 1.674 8.97 12.383 23.441 19.776 38.708 19.776 11.069 0 21.857-3.872 30.377-10.903 11.048-9.117 17.384-22.551 17.384-36.857 0-4.142 3.358-7.5 7.5-7.5s7.5 3.358 7.5 7.5c0 18.799-8.323 36.45-22.836 48.427-9.61 7.931-21.415 12.793-33.76 14.017-1.553 13.6-7.495 26.253-16.958 36.15 7.953 2.996 15.086 8.029 20.654 14.776 7.266 8.805 11.268 19.95 11.268 31.382 0 4.142-3.358 7.5-7.5 7.5s-7.5-3.358-7.5-7.5c0-7.956-2.783-15.71-7.837-21.834-6.164-7.469-15.072-11.94-24.665-12.446-9.104 4.908-19.359 7.549-29.809 7.549-4.142 0-7.5-3.358-7.5-7.5s3.356-7.5 7.498-7.5z"/><path d="m133.203 66.601c0-.004 0-.008 0-.013 0-.001.001-.003 0-.003.001-5.142.604-10.14 1.708-14.947 0-.004.001-.006.002-.009 28.756.601 55.03 16.514 68.864 41.85 1.985 3.636.647 8.192-2.988 10.177-3.636 1.986-8.192.647-10.177-2.988-11.473-21.014-33.462-34.068-57.385-34.068-.008 0-.016.001-.024.001z"/><path d="m35.84 337.297c11.996 14.265 29.961 23.353 50.014 23.353 4.142 0 7.5 3.358 7.5 7.5s-3.358 7.5-7.5 7.5c-21.455 0-40.956-8.469-55.381-22.219 1.112-5.666 2.918-11.082 5.367-16.134z"/><path d="m325.939 357.761c0-4.142-3.358-7.5-7.5-7.5-22.267 0-42.122 10.473-54.939 26.737v-98.882c0-18.618 9.318-35.823 24.926-46.025 3.467-2.266 4.44-6.914 2.174-10.381-2.267-3.468-6.915-4.44-10.381-2.174-6.468 4.228-12.081 9.407-16.719 15.28v-122.426c0-18.618 9.318-35.823 24.926-46.025 3.467-2.266 4.44-6.914 2.174-10.381-2.267-3.468-6.915-4.44-10.381-2.174-6.468 4.228-12.081 9.407-16.719 15.28v-47.899c-2.783 2.985-5.297 6.226-7.5 9.683-2.203-3.458-4.717-6.698-7.5-9.683v47.899c-4.637-5.874-10.25-11.052-16.719-15.28-3.467-2.266-8.114-1.293-10.381 2.174-2.266 3.467-1.293 8.115 2.174 10.381 15.608 10.202 24.926 27.407 24.926 46.025v122.425c-4.637-5.874-10.25-11.052-16.719-15.28-3.467-2.266-8.114-1.292-10.381 2.174-2.266 3.467-1.293 8.115 2.174 10.381 15.608 10.202 24.926 27.407 24.926 46.025v98.882c-12.817-16.264-32.672-26.737-54.939-26.737-4.142 0-7.5 3.358-7.5 7.5s3.358 7.5 7.5 7.5c30.293 0 54.939 24.646 54.939 54.939v66.769c2.784-3.197 5.301-6.633 7.5-10.284 2.199 3.651 4.716 7.087 7.5 10.284v-66.768c0-30.293 24.646-54.939 54.939-54.939 4.142 0 7.5-3.358 7.5-7.5z"/></g></g><g/><g/><g/><g/><g/><g/><g/><g/><g/><g/><g/><g/><g/><g/><g/></svg>