<svg id="Layer_1" viewBox="0 0 512.0000131 512" xmlns="http://www.w3.org/2000/svg" xmlns:xlink="http://www.w3.org/1999/xlink" data-name="Layer 1"><linearGradient id="linear-gradient" gradientUnits="userSpaceOnUse" x1="41.93" x2="403.354" y1="250.634" y2="250.634"><stop offset="0" stop-color="#fff"/><stop offset="1" stop-color="#fff"/></linearGradient><path d="m454.6791885 138.7847-4.6918999 12.4443-24.6991756-24.6967 14.6513758-14.6533c1.0971-1.0972 2.0350999-2.2959 2.8177999-3.5625l.0025-.002c14.3495996-18.0273 4.6425999-36.0112-10.1903997-48.7847l-6.5829998 10.5542c-7.6591998-7.6201-20.1616995-7.6074-27.8066993.0352l-194.8280951 194.8301c-41.8671989-23.6265-95.9389976-17.6187-131.5951967 18.0332-42.8915989 42.8945-42.8915989 112.4336 0 155.3183 42.8900989 42.8946 112.4271972 42.8946 155.3168961 0 35.6561991-35.6533 41.6644989-89.7207 18.0355995-131.5986l66.9897983-66.9829 41.025799 41.0229c7.6552998 7.6621 20.184622 7.6543 27.8398993 0 7.6488998-7.6445 18.3910995-17 24.2817227-26.0796 9.8534764-15.1889-2.2148233-23.6191-19.7671228-42.2187l-4.9794999 12.1592-26.6415993-26.6411 29.6703993-29.6724 41.026399 41.0259c7.6571998 7.6552 20.1864995 7.6552 27.8394238 0 4.6405754-4.6407 9.2792753-9.2793 13.9198751-13.9175.6592-.6592 1.2627-1.3574 1.8081249-2.083 20.9839-20.4859 5.270475-36.2715-13.4429246-54.5303zm-260.4764934 266.648c-24.7363994 24.7363-64.8388984 24.7363-89.5751977 0-24.7363843-24.7364-24.7363843-64.837 0-89.5733 24.7362994-24.7363 64.8387984-24.7363 89.5751977 0 24.7357994 24.7363 24.7357994 64.8369 0 89.5733z" fill="#fd7d00"/><path d="m460.6011131 144.7061-41.0259237-41.0259 14.6532996-14.6513c7.6547998-7.6553 7.6547998-20.1846 0-27.8418l-13.9198996-13.918c-7.6552998-7.6548-20.1845995-7.6548-27.8397993 0l-194.8300951 194.8286c-41.8671989-23.625-95.9389976-17.6162-131.5951967 18.041-42.8896989 42.8858-42.8896989 112.4258 0 155.3106 42.8896147 42.8945 112.4291972 42.8945 155.3187961 0 35.6562991-35.6543 41.6645989-89.7217 18.0356995-131.5899l66.9896983-66.9897 41.025899 41.021c7.6552998 7.6621 20.1845995 7.6621 27.8397993 0l13.9179996-13.9131c7.6547998-7.6548 7.6547998-20.1865 0-27.8413l-41.026399-41.0264 29.6723993-29.6704 41.026399 41.0264c7.6547998 7.6552 20.1840995 7.6552 27.8393237 0l13.918-13.918c7.6552751-7.6553 7.6552751-20.1865 0-27.8418zm-272.1118178 237.874c-24.7338994 24.7364-64.8383984 24.7364-89.5727977 0-24.7362994-24.7363-24.7362994-64.8359 0-89.5722 24.7343994-24.7364 64.8388984-24.7364 89.5727977 0 24.7362994 24.7363 24.7362994 64.8359 0 89.5722z" fill="#fbcc00"/><path id="_271222768" d="m234.8256941 223.1446s108.5380973-116.4746 140.9110964-144.7193c32.3710992-28.247 41.257399-13.3291-.6342 27.9283-41.8915989 41.2578-108.2241973 105.9995-124.4086969 120.2807-16.1845996 14.2837-27.9286993 12.6968-15.8681996-3.4897zm-176.1356956 107.1123s.9506 55.5381 45.5428988 72.9931c44.5898989 17.4551 31.7363992 31.7373 16.1840996 33.961-15.5497996 2.2226-52.3339987-20.5215-68.8676983-52.0518-16.5336996-31.5302-7.6180998-53.9521-3.4916999-59.3486 4.1259999-5.3965 11.4257997-4.6035 10.6323997 4.4463z" fill="url(#linear-gradient)" opacity=".5" data-name=" 271222768"/></svg>