<svg viewBox="0 0 100 100" xmlns="http://www.w3.org/2000/svg">
  <rect width="100" height="100" fill="#0a0a0a"/>

  <!-- 1975 circle (left, purple, few dots) -->
  <circle cx="30" cy="50" r="22" fill="#111" stroke="#333" stroke-width="1"/>
  <circle cx="25" cy="45" r="2" fill="#A78BFA"/>
  <circle cx="35" cy="48" r="2" fill="#A78BFA"/>
  <circle cx="28" cy="55" r="2" fill="#A78BFA"/>
  <circle cx="33" cy="52" r="2" fill="#A78BFA"/>
  <circle cx="30" cy="46" r="2" fill="#A78BFA"/>
  <text x="30" y="80" text-anchor="middle" fill="#A78BFA" font-size="8" font-family="sans-serif">1975</text>

  <!-- 2025 circle (right, red, many dots) -->
  <circle cx="70" cy="50" r="22" fill="#111" stroke="#333" stroke-width="1"/>
  <circle cx="62" cy="42" r="1.5" fill="#EF4444"/>
  <circle cx="66" cy="44" r="1.5" fill="#EF4444"/>
  <circle cx="70" cy="41" r="1.5" fill="#EF4444"/>
  <circle cx="74" cy="43" r="1.5" fill="#EF4444"/>
  <circle cx="78" cy="45" r="1.5" fill="#EF4444"/>
  <circle cx="63" cy="48" r="1.5" fill="#EF4444"/>
  <circle cx="67" cy="50" r="1.5" fill="#EF4444"/>
  <circle cx="71" cy="47" r="1.5" fill="#EF4444"/>
  <circle cx="75" cy="49" r="1.5" fill="#EF4444"/>
  <circle cx="79" cy="51" r="1.5" fill="#EF4444"/>
  <circle cx="64" cy="54" r="1.5" fill="#EF4444"/>
  <circle cx="68" cy="56" r="1.5" fill="#EF4444"/>
  <circle cx="72" cy="53" r="1.5" fill="#EF4444"/>
  <circle cx="76" cy="55" r="1.5" fill="#EF4444"/>
  <circle cx="65" cy="59" r="1.5" fill="#EF4444"/>
  <circle cx="69" cy="61" r="1.5" fill="#EF4444"/>
  <circle cx="73" cy="58" r="1.5" fill="#EF4444"/>
  <circle cx="77" cy="60" r="1.5" fill="#EF4444"/>
  <circle cx="70" cy="64" r="1.5" fill="#EF4444"/>
  <circle cx="74" cy="62" r="1.5" fill="#EF4444"/>
  <text x="70" y="80" text-anchor="middle" fill="#EF4444" font-size="8" font-family="sans-serif">2025</text>
</svg>
