<svg viewBox="0 0 100 100" xmlns="http://www.w3.org/2000/svg">
  <rect width="100" height="100" fill="#111"/>

  <!-- Blue circles on left -->
  <circle cx="12" cy="25" r="8" fill="#3B82F6"/>
  <circle cx="12" cy="50" r="8" fill="#3B82F6"/>
  <circle cx="12" cy="75" r="8" fill="#3B82F6"/>

  <!-- Red circles on right -->
  <circle cx="88" cy="25" r="8" fill="#EF4444"/>
  <circle cx="88" cy="50" r="8" fill="#EF4444"/>
  <circle cx="88" cy="75" r="8" fill="#EF4444"/>

  <!-- Grey faces in middle -->
  <text x="35" y="30" font-size="10" opacity="0.4" filter="grayscale(1)">😬</text>
  <text x="50" y="30" font-size="10" opacity="0.4" filter="grayscale(1)">😬</text>
  <text x="65" y="30" font-size="10" opacity="0.4" filter="grayscale(1)">😬</text>
  <text x="35" y="55" font-size="10" opacity="0.4" filter="grayscale(1)">😬</text>
  <text x="50" y="55" font-size="10" opacity="0.4" filter="grayscale(1)">😬</text>
  <text x="65" y="55" font-size="10" opacity="0.4" filter="grayscale(1)">😬</text>
  <text x="35" y="80" font-size="10" opacity="0.4" filter="grayscale(1)">😬</text>
  <text x="50" y="80" font-size="10" opacity="0.4" filter="grayscale(1)">😬</text>
  <text x="65" y="80" font-size="10" opacity="0.4" filter="grayscale(1)">😬</text>

  <!-- Rocket going right -->
  <ellipse cx="45" cy="40" rx="8" ry="3" fill="#3B82F6"/>
  <polygon points="53,40 60,37 60,43" fill="#3B82F6"/>
  <polygon points="37,40 30,38 33,40 30,42" fill="#F59E0B"/>

  <!-- Rocket going left -->
  <ellipse cx="55" cy="65" rx="8" ry="3" fill="#EF4444"/>
  <polygon points="47,65 40,62 40,68" fill="#EF4444"/>
  <polygon points="63,65 70,63 67,65 70,67" fill="#F59E0B"/>
</svg>
