<svg xmlns="http://www.w3.org/2000/svg" viewBox="0 0 100 100">
  <rect width="100" height="100" fill="#0a0a0a"/>
  <!-- Village houses -->
  <rect x="15" y="55" width="12" height="15" fill="#333" rx="1"/>
  <polygon points="15,55 21,45 27,55" fill="#444"/>
  <rect x="32" y="50" width="14" height="20" fill="#333" rx="1"/>
  <polygon points="32,50 39,38 46,50" fill="#444"/>
  <rect x="52" y="55" width="12" height="15" fill="#333" rx="1"/>
  <polygon points="52,55 58,45 64,55" fill="#444"/>
  <!-- Crown (stationary bandit) -->
  <polygon points="39,25 35,35 43,35" fill="#22C55E"/>
  <polygon points="39,25 33,30 35,35" fill="#1a9a4a"/>
  <polygon points="39,25 45,30 43,35" fill="#1a9a4a"/>
  <circle cx="39" cy="23" r="2" fill="#FBBF24"/>
  <!-- Coins flowing up -->
  <circle cx="25" cy="42" r="3" fill="#F59E0B" opacity="0.7"/>
  <circle cx="39" cy="38" r="3" fill="#F59E0B" opacity="0.8"/>
  <circle cx="53" cy="42" r="3" fill="#F59E0B" opacity="0.7"/>
  <!-- Growth arrow -->
  <path d="M70,70 L70,40 L65,45 M70,40 L75,45" stroke="#22C55E" stroke-width="2" fill="none"/>
  <!-- X over roving bandit symbol -->
  <circle cx="85" cy="25" r="8" fill="none" stroke="#EF4444" stroke-width="1.5" opacity="0.6"/>
  <line x1="80" y1="20" x2="90" y2="30" stroke="#EF4444" stroke-width="1.5" opacity="0.6"/>
</svg>
