<svg xmlns="http://www.w3.org/2000/svg" viewBox="0 0 100 100">
  <rect width="100" height="100" fill="#0a0a0f"/>

  <!-- Tree structure -->
  <line x1="50" y1="10" x2="50" y2="25" stroke="#F59E0B" stroke-width="2"/>
  <line x1="30" y1="25" x2="70" y2="25" stroke="#333" stroke-width="1"/>
  <line x1="30" y1="25" x2="30" y2="35" stroke="#333" stroke-width="1"/>
  <line x1="50" y1="25" x2="50" y2="40" stroke="#F59E0B" stroke-width="2"/>
  <line x1="70" y1="25" x2="70" y2="35" stroke="#333" stroke-width="1"/>

  <line x1="35" y1="40" x2="65" y2="40" stroke="#333" stroke-width="1"/>
  <line x1="35" y1="40" x2="35" y2="50" stroke="#333" stroke-width="1"/>
  <line x1="50" y1="40" x2="50" y2="55" stroke="#F59E0B" stroke-width="2"/>
  <line x1="65" y1="40" x2="65" y2="50" stroke="#333" stroke-width="1"/>

  <line x1="40" y1="55" x2="60" y2="55" stroke="#333" stroke-width="1"/>
  <line x1="40" y1="55" x2="40" y2="65" stroke="#333" stroke-width="1"/>
  <line x1="50" y1="55" x2="50" y2="70" stroke="#F59E0B" stroke-width="2"/>
  <line x1="60" y1="55" x2="60" y2="65" stroke="#333" stroke-width="1"/>

  <!-- Apes at bottom -->
  <text x="20" y="88" font-size="14">🦧</text>
  <text x="35" y="88" font-size="14">🦍</text>
  <text x="50" y="88" font-size="14">🐵</text>
  <text x="65" y="88" font-size="14">🐵</text>
  <text x="80" y="88" font-size="14">🧑</text>

  <!-- Life label -->
  <text x="50" y="8" fill="#F59E0B" font-size="6" text-anchor="middle" font-family="sans-serif">LIFE</text>
</svg>