<svg xmlns="http://www.w3.org/2000/svg" viewBox="0 0 100 100">
  <rect width="100" height="100" fill="#0a0a0f"/>
  <!-- Sally (left) -->
  <circle cx="25" cy="35" r="10" fill="#FBBF24"/>
  <circle cx="22" cy="33" r="2" fill="#fff"/>
  <circle cx="28" cy="33" r="2" fill="#fff"/>
  <circle cx="22" cy="33" r="1" fill="#000"/>
  <circle cx="28" cy="33" r="1" fill="#000"/>
  <rect x="18" y="45" width="14" height="20" rx="3" fill="#EC4899"/>
  <!-- Thought bubble -->
  <ellipse cx="45" cy="20" rx="12" ry="8" fill="#333" opacity="0.8"/>
  <circle cx="35" cy="28" r="2" fill="#333" opacity="0.8"/>
  <text x="45" y="23" font-size="10" fill="#F59E0B" text-anchor="middle">?</text>
  <!-- Basket -->
  <ellipse cx="50" cy="80" rx="12" ry="8" fill="#8B4513"/>
  <path d="M38 80 Q50 65 62 80" fill="none" stroke="#8B4513" stroke-width="3"/>
  <!-- Marble -->
  <circle cx="50" cy="75" r="4" fill="#3B82F6"/>
  <!-- Box -->
  <rect x="70" y="70" width="18" height="18" fill="#444"/>
  <rect x="70" y="70" width="18" height="4" fill="#555"/>
  <!-- Anne (right) -->
  <circle cx="78" cy="35" r="10" fill="#92400E"/>
  <circle cx="75" cy="33" r="2" fill="#fff"/>
  <circle cx="81" cy="33" r="2" fill="#fff"/>
  <circle cx="75" cy="33" r="1" fill="#000"/>
  <circle cx="81" cy="33" r="1" fill="#000"/>
  <rect x="71" y="45" width="14" height="20" rx="3" fill="#22C55E"/>
</svg>